<svg xmlns="http://www.w3.org/2000/svg" width="20" height="16" fill="none" xmlns:v="https://vecta.io/nano"><path d="M12.813 8.59l-.302-.398-.007.005-.007.006.316.387zm0-1.003l-.326.379.022.019.024.016.28-.415zM9.366 4.625l.326-.379-.014-.012-.015-.011-.297.402zm-.723.442l.5-.001v-.008l-.5.009zm.014 5.817l-.5.001v.012l.001.012.499-.025zm.749.485l.271.42.023-.015.022-.018-.316-.387zM10 14.5c-1.597 0-3.329 0-4.785-.126-.728-.063-1.368-.156-1.878-.29-.526-.138-.84-.302-.988-.456l-.72.694c.346.358.883.579 1.454.729.588.155 1.292.254 2.046.319 1.507.13 3.286.13 4.871.13v-1zM.5 8l.128 3.905c.13 1.005.402 1.796 1.001 2.417l.72-.694c-.389-.404-.612-.951-.729-1.852C1.501 10.863 1.5 9.664 1.5 8h-1zm18 0l-.119 3.776c-.117.901-.34 1.448-.729 1.852l.72.694c.599-.621.871-1.412 1.001-2.417.129-.993.128-2.268.128-3.905h-1zM10 15.5l4.871-.13c.754-.065 1.458-.164 2.046-.319.572-.15 1.109-.371 1.454-.729l-.72-.694c-.149.154-.462.318-.988.456-.509.134-1.15.227-1.878.29-1.456.126-3.188.126-4.785.126v1zm0-14l4.785.126c.728.063 1.368.156 1.878.29.526.138.84.302.988.456l.72-.694c-.346-.358-.883-.579-1.454-.729-.588-.154-1.292-.254-2.046-.319C13.364.5 11.585.5 10 .5v1zM19.5 8l-.128-3.905c-.13-1.005-.401-1.796-1.001-2.417l-.72.694c.389.404.612.951.729 1.852.118.913.119 2.113.119 3.776h1zM10 .5C8.415.5 6.636.5 5.129.63c-.754.065-1.458.164-2.046.319-.572.15-1.109.371-1.454.729l.72.694c.149-.154.462-.318.988-.456.51-.134 1.15-.227 1.878-.29C6.671 1.5 8.403 1.5 10 1.5v-1zM1.5 8l.119-3.776c.117-.901.34-1.448.729-1.852l-.72-.694C1.029 2.3.758 3.09.628 4.095.499 5.088.5 6.364.5 8h1zm11.616.988c.276-.21.528-.516.528-.915 0-.408-.264-.708-.55-.901l-.559.829c.072.048.102.084.112.099s-.002 0-.002-.026.009-.03-.004-.009-.051.068-.128.126l.605.796zm.023-1.781L9.692 4.246l-.652.759 3.447 2.961.652-.759zM9.663 4.223c-.271-.201-.667-.322-1.035-.121s-.491.603-.484.975l1-.017c-.001-.083.012-.12.015-.125-.02.024-.033.036-.052.047s-.037.016-.054.018-.027.001-.032.001.01 0 .049.028l.594-.804zm-1.52.846l.014 5.817 1-.002-.014-5.817-1 .002zm.015 5.841c.017.334.11.751.46.969.384.239.795.081 1.059-.09l-.542-.84c-.034.022-.06.035-.078.043s-.026.009-.024.008.018-.002.04.002.05.013.074.028c.049.03.054.061.044.034a.39.39 0 0 1-.019-.07 1 1 0 0 1-.015-.135l-.999.051zm1.565.847l3.406-2.779-.632-.775-3.406 2.779.632.775z" fill="#fff"/></svg>