<svg xmlns="http://www.w3.org/2000/svg" width="19" height="18" fill="none" xmlns:v="https://vecta.io/nano"><path d="M8.818 9.953l-1.001.942a2.7 2.7 0 0 0-1.001-1.473c-.471-.393-1.021-.589-1.649-.589s-1.198.196-1.708.589a2.82 2.82 0 0 0-.942 1.473l-1.001-.942-.766.766 1.296 1.237-.177.177v1.119H.748v1.119h1.119v.059c.039.353.137.707.295 1.06L.748 16.904l.766.766 1.237-1.237c.275.393.628.707 1.06.942.432.196.884.294 1.355.294s.923-.098 1.355-.294c.432-.236.785-.55 1.06-.942l1.237 1.237.766-.766-1.414-1.473c.157-.314.255-.668.294-1.06v-.059h1.119v-1.06H8.464v-1.119l-.118-.177 1.237-1.237-.766-.766zm-3.652 0c.471 0 .864.157 1.178.471s.471.707.471 1.178H3.517c0-.471.157-.864.471-1.178s.707-.471 1.178-.471zm2.238 4.418a2.6 2.6 0 0 1-.766 1.531c-.393.393-.884.609-1.473.648-.589-.039-1.099-.255-1.531-.648-.393-.432-.609-.942-.648-1.531v-1.649h4.418v1.649zm10.838-7.304v.942l-7.539 4.771v-1.296l6.244-3.946-9.542-6.067v6.95a4.17 4.17 0 0 0-1.119-.53V.47l.825-.471 11.132 7.068z" fill="gray"/></svg>