<svg xmlns="http://www.w3.org/2000/svg" width="12" height="12" fill="none" xmlns:v="https://vecta.io/nano"><path d="M5.636 8.882l-.942-.942.471-.51L6.735 9v.51l-1.571 1.571-.51-.55.942-.942H4.222a1.64 1.64 0 0 1-1.296-.51c-.366-.366-.55-.798-.55-1.296V3.699c-.366-.079-.681-.249-.942-.51s-.432-.576-.51-.942c-.052-.366-.013-.72.118-1.06.157-.34.38-.615.668-.825.314-.209.668-.314 1.06-.314.236 0 .471.039.707.118.471.209.812.55 1.021 1.021.079.236.118.471.118.707a1.77 1.77 0 0 1-.432 1.178c-.262.34-.602.55-1.021.628v4.045a1.2 1.2 0 0 0 .314.825c.209.209.471.314.785.314h1.374zM2.18 2.796a1.09 1.09 0 0 0 .707.157c.262-.026.484-.131.668-.314s.288-.406.314-.668-.026-.484-.157-.668c-.131-.209-.301-.353-.51-.432-.209-.105-.419-.131-.628-.079-.209.026-.406.131-.589.314-.157.157-.262.34-.314.55-.026.209 0 .419.079.628.105.209.249.38.432.51zm7.579 4.634c.367.079.681.249.942.51a1.7 1.7 0 0 1 .511 1.139c.052.419-.039.812-.275 1.178a1.96 1.96 0 0 1-.825.707c-.34.131-.694.157-1.06.079s-.681-.249-.942-.51-.432-.576-.51-.942-.052-.72.079-1.06a1.96 1.96 0 0 1 .707-.825 2.12 2.12 0 0 1 .668-.275V3.345c0-.314-.118-.576-.353-.785a1.02 1.02 0 0 0-.746-.314H6.578l.942.942-.55.51L5.4 2.128v-.51L6.971.047l.55.51-.942.942h1.374c.497 0 .929.183 1.296.55.366.34.537.772.51 1.296v4.084zm-.236 2.906a1.22 1.22 0 0 0 .51-.196.96.96 0 0 0 .353-.432c.105-.183.144-.367.118-.55 0-.183-.066-.367-.196-.55-.105-.183-.262-.314-.471-.393a1.15 1.15 0 0 0-.668-.039c-.209.026-.393.118-.55.275s-.262.353-.314.589c-.026.209 0 .419.079.628a1.26 1.26 0 0 0 .471.511c.209.131.432.183.668.157z" fill="#ccc"/></svg>