<svg xmlns="http://www.w3.org/2000/svg" width="18" height="19" fill="none" xmlns:v="https://vecta.io/nano"><path d="M10.998.652a6.01 6.01 0 0 0-3.357 1.001c-.982.628-1.728 1.492-2.238 2.592a6.38 6.38 0 0 0-.471 3.416c.196 1.178.687 2.199 1.473 3.063l-5.89 6.774.825.707 5.89-6.715c1.06.825 2.238 1.257 3.534 1.296 1.335.039 2.552-.314 3.652-1.06a5.83 5.83 0 0 0 2.297-3.004 5.9 5.9 0 0 0 .059-3.77c-.393-1.296-1.139-2.336-2.238-3.122-1.06-.785-2.238-1.178-3.534-1.178zm0 11.014c-.903 0-1.747-.216-2.533-.648A5.24 5.24 0 0 1 6.64 9.252c-.432-.785-.648-1.63-.648-2.533s.216-1.728.648-2.474c.471-.785 1.08-1.394 1.826-1.826.785-.432 1.63-.648 2.533-.648s1.728.216 2.474.648 1.335 1.041 1.767 1.826a4.54 4.54 0 0 1 .707 2.474c0 .903-.236 1.747-.707 2.533a5.24 5.24 0 0 1-1.767 1.826c-.746.432-1.571.648-2.474.648v-.059z" fill="gray"/></svg>