<svg xmlns="http://www.w3.org/2000/svg" width="15" height="19" fill="none" xmlns:v="https://vecta.io/nano"><path d="M14.239 6.893a2.58 2.58 0 0 0-.412-1.414c-.275-.471-.648-.825-1.119-1.06s-.962-.334-1.473-.295a2.72 2.72 0 0 0-1.414.53c-.432.314-.746.726-.942 1.237a3.1 3.1 0 0 0-.118 1.473 2.57 2.57 0 0 0 .648 1.355 3.08 3.08 0 0 0 1.296.766 2.4 2.4 0 0 1-.825.942c-.353.196-.746.295-1.178.295H6.523a3.16 3.16 0 0 0-2.238.883v-5.36c.707-.118 1.257-.452 1.649-1.001a2.68 2.68 0 0 0 .53-1.944 2.42 2.42 0 0 0-.884-1.767A2.6 2.6 0 0 0 3.755.826c-.707 0-1.335.236-1.885.707-.51.471-.805 1.06-.884 1.767-.039.707.137 1.355.53 1.944a2.65 2.65 0 0 0 1.708 1.001v6.715c-.707.157-1.276.51-1.708 1.06a2.71 2.71 0 0 0-.589 1.885 3.13 3.13 0 0 0 .825 1.826c.51.471 1.119.727 1.826.766a2.71 2.71 0 0 0 1.885-.589c.55-.432.884-1.001 1.001-1.708s0-1.355-.353-1.944-.884-.982-1.59-1.178c.196-.393.471-.687.825-.883.353-.236.746-.353 1.178-.353h2.179a3.16 3.16 0 0 0 1.885-.589 3.42 3.42 0 0 0 1.237-1.649 2.69 2.69 0 0 0 1.708-.884c.471-.55.707-1.158.707-1.826zM2.106 3.594c0-.471.157-.864.471-1.178s.707-.471 1.178-.471.864.157 1.178.471.471.707.471 1.178c0 .432-.157.825-.471 1.178-.314.314-.707.471-1.178.471s-.864-.157-1.178-.471c-.314-.353-.471-.746-.471-1.178zm3.298 12.075c0 .471-.157.864-.471 1.178s-.707.471-1.178.471-.864-.157-1.178-.471-.471-.687-.471-1.119c0-.471.157-.864.471-1.178a1.51 1.51 0 0 1 1.178-.53 1.51 1.51 0 0 1 1.178.53c.314.314.471.687.471 1.119zm6.067-7.127c-.471 0-.864-.157-1.178-.471-.314-.353-.471-.746-.471-1.178 0-.471.157-.864.471-1.178s.687-.471 1.119-.471c.471 0 .864.157 1.178.471a1.51 1.51 0 0 1 .53 1.178c0 .432-.177.825-.53 1.178-.314.314-.687.471-1.119.471z" fill="gray"/></svg>