<svg xmlns="http://www.w3.org/2000/svg" width="40" height="40" fill="none" xmlns:v="https://vecta.io/nano"><g clip-path="url(#A)" fill="#2e2e2e"><path d="M11.667 0h-5A6.67 6.67 0 0 0 0 6.667v5a6.67 6.67 0 0 0 6.667 6.667h5a6.67 6.67 0 0 0 6.667-6.667v-5A6.67 6.67 0 0 0 11.667 0zm21.666 0h-5a6.67 6.67 0 0 0-6.667 6.667v5a6.67 6.67 0 0 0 6.667 6.667h5A6.67 6.67 0 0 0 40 11.667v-5A6.67 6.67 0 0 0 33.333 0zM11.667 21.667h-5A6.67 6.67 0 0 0 0 28.333v5A6.67 6.67 0 0 0 6.667 40h5a6.67 6.67 0 0 0 6.667-6.667v-5a6.67 6.67 0 0 0-6.667-6.667zm21.666 0h-5a6.67 6.67 0 0 0-6.667 6.667v5A6.67 6.67 0 0 0 28.333 40h5A6.67 6.67 0 0 0 40 33.333v-5a6.67 6.67 0 0 0-6.667-6.667z"/></g><defs><clipPath id="A"><path fill="#fff" d="M0 0h40v40H0z"/></clipPath></defs></svg>