<svg xmlns="http://www.w3.org/2000/svg" width="40" height="40" fill="none" xmlns:v="https://vecta.io/nano"><path d="M36.667 30.307V30c-.003-2.209-.881-4.327-2.444-5.89s-3.68-2.441-5.89-2.444h-6.667V19.85a10 10 0 0 0 8.298-10.696A10 10 0 0 0 20-.01a10 10 0 0 0-9.965 9.164 10 10 0 0 0 8.298 10.696v1.817h-6.667c-2.209.003-4.327.881-5.89 2.444S3.336 27.791 3.334 30v.307a5 5 0 0 0-2.646 2.184 5 5 0 0 0-.615 3.375A5 5 0 0 0 5 40.021a5 5 0 0 0 4.928-4.154 5 5 0 0 0-3.261-5.56V30a5 5 0 0 1 5-5h6.667v5.307a5 5 0 0 0-3.261 5.56A5 5 0 0 0 20 40.021a5 5 0 0 0 4.928-4.154 5 5 0 0 0-3.261-5.56V25h6.667a5 5 0 0 1 5 5v.307a5 5 0 0 0-3.261 5.56A5 5 0 0 0 35 40.021a5 5 0 0 0 4.928-4.154 5 5 0 0 0-3.261-5.56z" fill="#2e2e2e"/></svg>