<svg xmlns="http://www.w3.org/2000/svg" width="40" height="40" fill="none" xmlns:v="https://vecta.io/nano"><g clip-path="url(#A)" fill="#2e2e2e"><path d="M27 7.292c0 4.027-3.134 7.292-7 7.292s-7-3.265-7-7.292S16.134 0 20 0s7 3.265 7 7.292zm5 18.75c0 4.027-5.373 7.292-12 7.292S8 30.069 8 26.042s5.373-7.292 12-7.292 12 3.265 12 7.292zM10.244 2.083a5.12 5.12 0 0 1 1.036.105C10.465 3.697 10 5.438 10 7.292c0 1.809.443 3.51 1.221 4.992a5.12 5.12 0 0 1-.977.093c-2.829 0-5.122-2.304-5.122-5.147s2.293-5.147 5.122-5.147zM6.895 31.221C5.759 29.807 5 28.071 5 26.042c0-1.967.713-3.658 1.792-5.048C2.982 21.301 0 23.471 0 26.103c0 2.656 3.035 4.842 6.895 5.118zM30 7.292a10.71 10.71 0 0 1-1.221 4.992c.316.061.643.093.977.093 2.829 0 5.122-2.304 5.122-5.147s-2.293-5.147-5.122-5.147a5.12 5.12 0 0 0-1.036.105C29.535 3.697 30 5.438 30 7.292zm3.106 23.929c3.86-.275 6.895-2.462 6.895-5.118 0-2.632-2.982-4.802-6.792-5.11C34.287 22.383 35 24.075 35 26.042c0 2.029-.759 3.765-1.895 5.179z"/></g><defs><clipPath id="A"><path fill="#fff" d="M0 0h40v33.333H0z"/></clipPath></defs></svg>