<svg width="12" height="20" viewBox="0 0 12 20" fill="none" xmlns="http://www.w3.org/2000/svg">
<path d="M6.48349 3.38812L3.93276 4.91856C3.5029 5.17647 3.24644 5.64697 3.2626 6.14801L3.36387 9.28754C3.38864 10.0552 2.77307 10.6909 2.00504 10.6909C1.25419 10.6909 0.645508 10.0822 0.645508 9.33137V4.68013C0.645508 4.22582 0.868826 3.80053 1.24282 3.5426L4.90741 1.0153C5.36099 0.70249 5.95705 0.689031 6.42428 0.981051L6.50491 1.03144C7.38016 1.57847 7.36853 2.85709 6.48349 3.38812Z" fill="#005AFF"/>
<path d="M11.3546 10.95V15.8824C11.3546 16.4057 11.0589 16.8842 10.5907 17.1183L6.49881 19.1643C6.08006 19.3736 5.58377 19.3567 5.18023 19.1194L5.08318 19.0623C4.13868 18.5067 4.18571 17.1254 5.16582 16.6353L7.99984 15.2183C8.46798 14.9842 8.76369 14.5057 8.76369 13.9824V10.95C8.76369 10.2345 9.34368 9.65455 10.0591 9.65455C10.7746 9.65455 11.3546 10.2345 11.3546 10.95Z" fill="#005AFF"/>
<path fill-rule="evenodd" clip-rule="evenodd" d="M7.5546 8.6668C7.5546 8.20478 7.7855 7.77334 8.16992 7.51706C7.7855 7.77334 7.5546 8.20478 7.5546 8.6668ZM4.44551 11.5979C4.44551 12.1033 4.16954 12.5684 3.72596 12.8107C4.16952 12.5687 4.44551 12.1031 4.44551 11.5979Z" fill="#005AFF"/>
</svg>
