<svg width="12" height="14" viewBox="0 0 12 14" fill="none" xmlns="http://www.w3.org/2000/svg">
<path d="M6.88714 11.1109L2.63065 13.6815C2.08313 14.0122 1.37681 13.8986 0.960549 13.413C0.757254 13.1758 0.645508 12.8737 0.645508 12.5614V12.3112C0.645508 11.8055 0.921715 11.3403 1.36564 11.0981L3.72538 9.81098C4.1693 9.56884 4.44551 9.10356 4.44551 8.59789V4.03062C4.44551 3.51949 4.72765 3.05011 5.17904 2.81031L9.37372 0.581886C9.74665 0.383769 10.1951 0.390679 10.5617 0.60019C10.9452 0.819314 11.1819 1.22711 11.1819 1.66877V1.76956C11.1819 2.23158 10.951 2.66303 10.5665 2.91931L8.16992 4.51706C7.7855 4.77334 7.5546 5.20478 7.5546 5.6668V9.92806C7.5546 10.412 7.30141 10.8607 6.88714 11.1109Z" fill="#FFA500"/>
<path fill-rule="evenodd" clip-rule="evenodd" d="M3.93276 1.91856C3.5029 2.17647 3.24644 2.64697 3.2626 3.14801C3.24644 2.64697 3.5029 2.17647 3.93276 1.91856Z" fill="#FFA500"/>
<path fill-rule="evenodd" clip-rule="evenodd" d="M8.76369 10.9824C8.76369 11.5057 8.46798 11.9842 7.99984 12.2183C8.46798 11.9842 8.76369 11.5057 8.76369 10.9824Z" fill="#FFA500"/>
</svg>
